<svg xmlns="http://www.w3.org/2000/svg" viewBox="0 0 66.934 48.727"> <defs> <linearGradient id="linear-gradient" x1=".5" x2=".5" y2="1" gradientUnits="objectBoundingBox"> <stop offset="0" stop-color="#fff"/> <stop offset="1" stop-color="#d9f88b"/> </linearGradient> <style></style> </defs> <g id="Group_88574" data-name="Group 88574" transform="translate(-158.446 -120.575)"> <g id="Group_37012" data-name="Group 37012" transform="translate(159 120.575)"> <path id="Path_83289" fill="url(#linear-gradient)" d="M249.55 193.4a53.532 53.532 0 0 1-13.873-13.873 8.737 8.737 0 0 1-2.486-6.029 8.5 8.5 0 0 1 2.486-6.029A73.08 73.08 0 0 1 249.55 153.6a8.733 8.733 0 0 1 6.029-2.487 8.5 8.5 0 0 1 6.029 2.487 83.454 83.454 0 0 1 13.873 13.872 8.733 8.733 0 0 1 2.487 6.029 8.5 8.5 0 0 1-2.487 6.029 82.915 82.915 0 0 1-13.873 13.87 8.784 8.784 0 0 1-3.667 2.157 8.3 8.3 0 0 1-2.361.329 8.81 8.81 0 0 1-2.935-.574 9.419 9.419 0 0 1-3.095-1.912z" data-name="Path 83289" transform="translate(-211.588 -151.111)"/> <g id="Group_36848" data-name="Group 36848" transform="translate(0 5.766)"> <path id="Path_74940" fill="none" stroke="#000" stroke-miterlimit="10" stroke-width="0.988px" d="M156.514 1205.5c-.289.638-3.241 7.416.025 12.639a11.739 11.739 0 0 0 3.737 3.635 8.357 8.357 0 0 0 5.184 1.266 7.344 7.344 0 0 0 5.265-11.74" data-name="Path 74940" transform="translate(-127.622 -1180.618)"/> <path id="Path_82525" fill="none" stroke="#000" stroke-miterlimit="10" d="M154.06 1189.818c-2.4-.824-3.928-.756-4.772 0-3.667 3.289 3.179 21.815 10.264 21.795 7.106-.019 13.809-18.695 10.231-21.795-.724-.628-2.017-.744-4.166 0" data-name="Path 82525" transform="translate(-130.659 -1187.942)"/> <circle id="Ellipse_2321" cx="1.876" cy="1.876" r="1.876" fill="#0097ff" stroke="#fff" stroke-width="0.5px" stroke-miterlimit="10" data-name="Ellipse 2321" transform="translate(21.524)"/> <circle id="Ellipse_2322" cx="1.876" cy="1.876" r="1.876" fill="#0097ff" stroke="#fff" stroke-width="0.5px" stroke-miterlimit="10" data-name="Ellipse 2322" transform="translate(33.08)"/> <circle id="Ellipse_2323" cx="3.614" cy="3.614" r="3.614" fill="#fff" stroke="#000" stroke-miterlimit="10" data-name="Ellipse 2323" transform="translate(39.492 27.071)"/> <path id="Rectangle_2616" d="M156.711 1203.135a2.138 2.138 0 0 1 2.137 2.137v1.82a2.138 2.138 0 0 1-2.137 2.137 2.138 2.138 0 0 1-2.137-2.137v-1.82a2.138 2.138 0 0 1 2.137-2.137z" fill="#0097ff" stroke="#fff" stroke-width="0.5px" stroke-miterlimit="10" data-name="Rectangle 2616" transform="translate(-127.819 -1181.681)"/> <g id="Group_36581" data-name="Group 36581" transform="translate(0 7.205)"> <path id="Path_71953" fill="#0097ff" stroke="#fff" stroke-linecap="round" stroke-miterlimit="10" stroke-width="0.5px" d="M146.8 1205.429c1.109.077 1.425-.8 2.338-.677a3.389 3.389 0 0 1 2.211 4.133 3.588 3.588 0 0 1-3.19 1.8c-3.73.158-6.449-4.761-7.048-5.844-.638-1.153-3.44-6.224-1.2-9.463.753-1.086 2.445-2.509 3.97-1.942a3.2 3.2 0 0 1 1.63 3.9c-.458 1.018-1.494.776-2.084 1.862-.869 1.6.471 3.77.748 4.189.354.556 1.268 1.951 2.625 2.042z" data-name="Path 71953" transform="translate(-134.805 -1193.309)"/> <path id="Path_71954" d="M138.2 1199.976a7.348 7.348 0 0 0 .8 2.593 7.45 7.45 0 0 0 2.49 2.727" fill="none" stroke="#000" stroke-miterlimit="10" stroke-linecap="round" data-name="Path 71954" transform="translate(-135.191 -1190.308)"/> <path id="Path_71955" d="M136.124 1200.254a10.187 10.187 0 0 0 4.579 7.4" fill="none" stroke="#000" stroke-miterlimit="10" stroke-linecap="round" data-name="Path 71955" transform="translate(-136.124 -1190.183)"/> </g> </g> </g> </g></svg>