<svg xmlns="http://www.w3.org/2000/svg" viewBox="0 0 20 20" id="history"><path d="M12.8 5.85a.5.5 0 0 1-.5.5H9.07a.5.5 0 0 1 0-1h3.23a.5.5 0 0 1 .5.5Zm-5.482-.5h-.515a.5.5 0 0 0 0 1h.515a.5.5 0 0 0 0-1Zm4.982 2H9.07a.5.5 0 1 0 0 1h3.23a.5.5 0 1 0 0-1Zm-4.982 0h-.515a.5.5 0 1 0 0 1h.515a.5.5 0 1 0 0-1Zm4.982 2H9.07a.5.5 0 0 0 0 1h3.23a.5.5 0 0 0 0-1Zm-4.982 0h-.515a.5.5 0 0 0 0 1h.515a.5.5 0 0 0 0-1Zm8.831 4.959a2.857 2.857 0 1 1-2.856-2.858 2.86 2.86 0 0 1 2.856 2.858Zm-1 0a1.857 1.857 0 1 0-1.856 1.857 1.859 1.859 0 0 0 1.856-1.857ZM9.08 12.745H5.35a.5.5 0 0 1-.5-.5v-7.91a.5.5 0 0 1 .5-.5h8.42a.5.5 0 0 1 .5.5v5.89a.5.5 0 0 0 1 0v-5.89a1.502 1.502 0 0 0-1.5-1.5H5.35a1.502 1.502 0 0 0-1.5 1.5v7.91a1.502 1.502 0 0 0 1.5 1.5h3.73a.5.5 0 1 0 0-1Zm4.213 0a.5.5 0 0 0-.5.5v.564h-.265a.5.5 0 0 0 0 1h.765a.5.5 0 0 0 .5-.5v-1.064a.5.5 0 0 0-.5-.5Z"></path></svg>