<?xml version="1.0" encoding="utf-8"?>
<!-- Uploaded to: SVG Repo, www.svgrepo.com, Generator: SVG Repo Mixer Tools -->
<svg width="800px" height="800px" viewBox="0 0 24 24" xmlns="http://www.w3.org/2000/svg">
<defs>
<style>.cls-1{fill:none;stroke:#020202;stroke-miterlimit:10;stroke-width:1.92px;}</style>
</defs>
<g id="virus">
<circle class="cls-1" cx="8.17" cy="15.83" r="4.79"/>
<line class="cls-1" x1="0.5" y1="15.83" x2="3.38" y2="15.83"/>
<line class="cls-1" x1="12.96" y1="15.83" x2="15.83" y2="15.83"/>
<line class="cls-1" x1="8.17" y1="8.17" x2="8.17" y2="11.04"/>
<line class="cls-1" x1="8.17" y1="20.63" x2="8.17" y2="23.5"/>
<line class="cls-1" x1="2.75" y1="21.25" x2="4.78" y2="19.22"/>
<line class="cls-1" x1="11.55" y1="12.45" x2="13.59" y2="10.41"/>
<line class="cls-1" x1="2.75" y1="10.41" x2="4.78" y2="12.45"/>
<line class="cls-1" x1="11.55" y1="19.22" x2="13.59" y2="21.25"/>
<path class="cls-1" d="M21.58,4.33a1.93,1.93,0,0,1-1.91,1.92,1.84,1.84,0,0,1-1.35-.57,1.84,1.84,0,0,1-.57-1.35,1.93,1.93,0,0,1,1.92-1.91,1.91,1.91,0,0,1,1.91,1.91Z"/>
<line class="cls-1" x1="19.67" y1="2.42" x2="19.67" y2="0.5"/>
<line class="cls-1" x1="19.67" y1="8.17" x2="19.67" y2="6.25"/>
<line class="cls-1" x1="17.75" y1="4.33" x2="15.83" y2="4.33"/>
<line class="cls-1" x1="23.5" y1="4.33" x2="21.58" y2="4.33"/>
<line class="cls-1" x1="18.32" y1="2.98" x2="16.95" y2="1.62"/>
<line class="cls-1" x1="22.38" y1="7.05" x2="21.02" y2="5.68"/>
<line class="cls-1" x1="18.32" y1="5.68" x2="16.95" y2="7.05"/>
<line class="cls-1" x1="22.38" y1="1.62" x2="21.02" y2="2.98"/>
<line class="cls-1" x1="1.46" y1="4.33" x2="7.21" y2="4.33"/>
<line class="cls-1" x1="4.33" y1="1.46" x2="4.33" y2="7.21"/>
<line class="cls-1" x1="16.79" y1="18.71" x2="22.54" y2="18.71"/>
<line class="cls-1" x1="19.67" y1="15.83" x2="19.67" y2="21.58"/>
<line class="cls-1" x1="6.25" y1="14.88" x2="8.17" y2="14.88"/>
<line class="cls-1" x1="7.21" y1="17.75" x2="9.13" y2="17.75"/>
</g>
</svg>